<mxfile host="app.diagrams.net" agent="Mozilla/5.0 (Macintosh; Intel Mac OS X 10_15_7) AppleWebKit/537.36 (KHTML, like Gecko) Chrome/132.0.0.0 Safari/537.36" version="26.0.7">
  <diagram name="Page-1" id="1l9ma3UedYaZAsrvFTfW">
    <mxGraphModel dx="1137" dy="526" grid="1" gridSize="10" guides="1" tooltips="1" connect="1" arrows="1" fold="1" page="1" pageScale="1" pageWidth="827" pageHeight="1169" math="0" shadow="0">
      <root>
        <mxCell id="0" />
        <mxCell id="1" parent="0" />
        <mxCell id="kuVfV144gCx7UQeqjRTA-1" value="" style="shape=cylinder3;whiteSpace=wrap;html=1;boundedLbl=1;backgroundOutline=1;size=15;" parent="1" vertex="1">
          <mxGeometry x="240" y="720" width="60" height="80" as="geometry" />
        </mxCell>
        <mxCell id="kuVfV144gCx7UQeqjRTA-2" value="" style="endArrow=classic;html=1;rounded=0;" parent="1" edge="1">
          <mxGeometry width="50" height="50" relative="1" as="geometry">
            <mxPoint x="130" y="770" as="sourcePoint" />
            <mxPoint x="210" y="770" as="targetPoint" />
          </mxGeometry>
        </mxCell>
        <mxCell id="kuVfV144gCx7UQeqjRTA-3" value="Search ES" style="text;html=1;align=center;verticalAlign=middle;whiteSpace=wrap;rounded=0;" parent="1" vertex="1">
          <mxGeometry x="120" y="730" width="60" height="30" as="geometry" />
        </mxCell>
        <mxCell id="kuVfV144gCx7UQeqjRTA-4" value="Master Hotel list" style="text;html=1;align=center;verticalAlign=middle;whiteSpace=wrap;rounded=0;" parent="1" vertex="1">
          <mxGeometry x="240" y="810" width="60" height="30" as="geometry" />
        </mxCell>
        <mxCell id="kuVfV144gCx7UQeqjRTA-6" value="&lt;br&gt;&lt;div&gt;vervotech id&lt;/div&gt;&lt;div&gt;Name&lt;/div&gt;&lt;div&gt;ChainName&lt;/div&gt;&lt;div&gt;&lt;span style=&quot;background-color: transparent; color: light-dark(rgb(0, 0, 0), rgb(255, 255, 255));&quot;&gt;BrandName&lt;/span&gt;&lt;/div&gt;&lt;div&gt;&lt;br&gt;&lt;/div&gt;&lt;div&gt;address&lt;/div&gt;&lt;div&gt;pincode&lt;/div&gt;&lt;div&gt;city&lt;/div&gt;&lt;div&gt;state&lt;/div&gt;&lt;div&gt;country&lt;/div&gt;&lt;div&gt;cityCode&lt;/div&gt;&lt;div&gt;stateCode&lt;/div&gt;&lt;div&gt;CountryCode&lt;/div&gt;&lt;div&gt;&lt;br&gt;&lt;/div&gt;&lt;div&gt;phones - []&lt;/div&gt;&lt;div&gt;fax&lt;/div&gt;&lt;div&gt;Website&lt;/div&gt;&lt;div&gt;Emails - []&lt;/div&gt;&lt;div&gt;&lt;br&gt;&lt;/div&gt;&lt;div&gt;hotelRating&lt;/div&gt;&lt;div&gt;tripAdvisorReview&lt;/div&gt;&lt;div&gt;Facility&lt;/div&gt;&lt;div&gt;&lt;br&gt;&lt;/div&gt;&lt;div&gt;Airports&lt;/div&gt;&lt;div&gt;TrainStations&lt;/div&gt;&lt;div&gt;&lt;div&gt;PointOfInterests&lt;/div&gt;&lt;div&gt;ConnectedLocations&lt;/div&gt;&lt;div&gt;Neighbourhoods&lt;/div&gt;&lt;div&gt;Stadiums&lt;/div&gt;&lt;/div&gt;&lt;div&gt;&lt;br&gt;&lt;/div&gt;" style="text;html=1;align=center;verticalAlign=middle;whiteSpace=wrap;rounded=0;labelBorderColor=default;" parent="1" vertex="1">
          <mxGeometry y="200" width="227.5" height="260" as="geometry" />
        </mxCell>
        <mxCell id="2rIzJHlfmxQ2hy1xVaPQ-25" value="VERVOTECH" style="text;html=1;align=center;verticalAlign=middle;resizable=0;points=[];autosize=1;strokeColor=none;fillColor=none;" vertex="1" parent="1">
          <mxGeometry x="70" y="48" width="100" height="30" as="geometry" />
        </mxCell>
        <mxCell id="2rIzJHlfmxQ2hy1xVaPQ-26" value="TBO" style="text;html=1;align=center;verticalAlign=middle;resizable=0;points=[];autosize=1;strokeColor=none;fillColor=none;" vertex="1" parent="1">
          <mxGeometry x="272.5" y="60" width="50" height="30" as="geometry" />
        </mxCell>
        <mxCell id="2rIzJHlfmxQ2hy1xVaPQ-27" value="&lt;br&gt;&lt;div&gt;Hotel Code&lt;/div&gt;&lt;div&gt;Hotel Name&lt;/div&gt;&lt;div&gt;Description&lt;/div&gt;&lt;div&gt;HotelFacilities&lt;/div&gt;&lt;div&gt;Attractions&lt;/div&gt;&lt;div&gt;Images - []&lt;/div&gt;&lt;div&gt;&lt;br&gt;&lt;/div&gt;&lt;div&gt;check in&lt;/div&gt;&lt;div&gt;check out&lt;/div&gt;&lt;div&gt;&lt;br&gt;&lt;/div&gt;&lt;div&gt;Address&lt;/div&gt;&lt;div&gt;Pincode&lt;/div&gt;&lt;div&gt;CityId&lt;/div&gt;&lt;div&gt;cityName&lt;/div&gt;&lt;div&gt;countryName&lt;/div&gt;&lt;div&gt;CountryCode&lt;/div&gt;&lt;div&gt;&lt;br&gt;&lt;/div&gt;&lt;div&gt;phone&lt;/div&gt;&lt;div&gt;fax&lt;/div&gt;&lt;div&gt;&lt;br&gt;&lt;/div&gt;&lt;div&gt;Map&lt;/div&gt;&lt;div&gt;&lt;br&gt;&lt;/div&gt;&lt;div&gt;hotelRating&lt;/div&gt;&lt;div&gt;tripAdvisorReview&lt;/div&gt;&lt;div&gt;&lt;br&gt;&lt;/div&gt;" style="text;html=1;align=center;verticalAlign=middle;whiteSpace=wrap;rounded=0;labelBorderColor=default;" vertex="1" parent="1">
          <mxGeometry x="190" y="170" width="227.5" height="260" as="geometry" />
        </mxCell>
        <mxCell id="2rIzJHlfmxQ2hy1xVaPQ-29" value="Master Data" style="text;html=1;align=center;verticalAlign=middle;resizable=0;points=[];autosize=1;strokeColor=none;fillColor=none;" vertex="1" parent="1">
          <mxGeometry x="565" y="48" width="90" height="30" as="geometry" />
        </mxCell>
        <mxCell id="2rIzJHlfmxQ2hy1xVaPQ-33" value="&lt;br&gt;&lt;div&gt;UUID (id)&lt;/div&gt;&lt;div&gt;Hotel Name&lt;/div&gt;&lt;div&gt;Description&lt;/div&gt;&lt;div&gt;HotelFacilities&lt;/div&gt;&lt;div&gt;Attractions&lt;/div&gt;&lt;div&gt;Images - []&lt;/div&gt;&lt;div&gt;&lt;br&gt;&lt;/div&gt;&lt;div&gt;ChainName&lt;/div&gt;&lt;div&gt;brandName&lt;/div&gt;&lt;div&gt;&lt;br&gt;&lt;/div&gt;&lt;div&gt;check in&lt;/div&gt;&lt;div&gt;check out&lt;/div&gt;&lt;div&gt;&lt;br&gt;&lt;/div&gt;&lt;div&gt;Address&lt;/div&gt;&lt;div&gt;Pincode&lt;/div&gt;&lt;div&gt;CityId&lt;/div&gt;&lt;div&gt;cityName&lt;/div&gt;&lt;div&gt;countryName&lt;/div&gt;&lt;div&gt;CountryCode&lt;/div&gt;&lt;div&gt;state&lt;/div&gt;&lt;div&gt;stateCode&lt;/div&gt;&lt;div&gt;&lt;br&gt;&lt;/div&gt;&lt;div&gt;&lt;br&gt;&lt;/div&gt;&lt;div&gt;phone -[]&lt;/div&gt;&lt;div&gt;fax - []&lt;/div&gt;&lt;div&gt;website&lt;/div&gt;&lt;div&gt;emails - []&lt;/div&gt;&lt;div&gt;&lt;br&gt;&lt;/div&gt;&lt;div&gt;Map&lt;/div&gt;&lt;div&gt;&lt;br&gt;&lt;/div&gt;&lt;div&gt;hotelRating&lt;/div&gt;&lt;div&gt;tripAdvisorReview&lt;/div&gt;&lt;div&gt;&lt;br&gt;&lt;/div&gt;" style="text;html=1;align=center;verticalAlign=middle;whiteSpace=wrap;rounded=0;labelBorderColor=default;" vertex="1" parent="1">
          <mxGeometry x="440" y="210" width="227.5" height="260" as="geometry" />
        </mxCell>
        <mxCell id="2rIzJHlfmxQ2hy1xVaPQ-34" value="Vervotech Code&lt;div&gt;&lt;br&gt;&lt;/div&gt;&lt;div&gt;TBO Code&lt;/div&gt;&lt;div&gt;&lt;br&gt;&lt;/div&gt;&lt;div&gt;... and other&lt;/div&gt;" style="whiteSpace=wrap;html=1;" vertex="1" parent="1">
          <mxGeometry x="630" y="292.5" width="120" height="95" as="geometry" />
        </mxCell>
        <mxCell id="2rIzJHlfmxQ2hy1xVaPQ-36" value="Provider Data" style="text;html=1;align=center;verticalAlign=middle;resizable=0;points=[];autosize=1;strokeColor=none;fillColor=none;" vertex="1" parent="1">
          <mxGeometry x="640" y="250" width="100" height="30" as="geometry" />
        </mxCell>
      </root>
    </mxGraphModel>
  </diagram>
</mxfile>
